<svg width="115" height="114" viewBox="0 0 115 114" fill="none" xmlns="http://www.w3.org/2000/svg">
<path d="M105.16 14.2002L103.726 12.7862C95.5999 3.83022 83.6499 1.00203 83.6499 1.00203C69.3099 -3.24026 46.8439 6.18704 26.7775 25.5036C10.0475 41.0681 0 59.9227 0 74.0636C0 75.9632 0.48756 77.8392 0.48756 79.72C1.43878 89.1473 7.65755 99.0507 12.9012 103.764C19.6075 110.354 28.1972 113.672 37.7572 113.672C53.5311 113.672 72.1875 104.702 89.3811 88.6853C116.159 62.7508 122.846 32.1121 105.16 14.2002ZM28.68 83.4909C28.68 77.3537 35.3624 64.6363 49.7024 50.4953C63.5787 36.8258 77.9187 33.0548 84.6011 31.6408C81.2599 40.6061 74.0899 51.4286 63.5787 61.8175C53.5311 71.2448 42.0687 78.7725 32.0212 82.5482C31.07 83.029 29.6312 83.029 28.68 83.4909ZM33.46 32.1121C49.2339 16.5571 65.9639 9.0058 76.4799 9.0058C79.8259 9.0058 82.6939 9.96739 84.6059 11.8434C86.5274 13.7195 87.4739 17.4998 86.9959 21.7515C81.2599 22.2087 61.6524 25.5036 43.0199 43.9009C31.07 55.6851 18.6324 72.6401 19.6075 84.4242C16.73 84.4242 13.8524 83.4862 12.4375 82.0674C11.256 80.904 10.4281 79.4377 10.0475 77.8345C10.0475 77.8345 9.55999 75.4777 9.55999 74.0636C10.0475 62.2795 19.12 45.7817 33.46 32.1121ZM82.6939 81.6054C59.7499 104.24 33.46 110.349 19.6075 97.1699C18.5298 96.1694 17.565 95.0567 16.73 93.8515C17.686 94.3323 19.12 94.3323 20.554 94.3323C24.856 94.3323 30.114 93.3896 35.3624 91.4947C46.8487 87.2618 59.2624 79.2533 70.2611 68.4072C86.9911 51.9094 96.5511 33.0548 96.5511 19.3947L97.0386 19.8519L98.4726 20.7946C111.842 34.4737 105.16 59.9179 82.6987 81.6102L82.6939 81.6054Z" fill="#FFFEFB"/>
</svg>
