<svg width="101" height="101" viewBox="0 0 101 101" fill="none" xmlns="http://www.w3.org/2000/svg">
<path d="M91.7951 50.4582V83.5277C91.7951 85.7203 90.9241 87.8232 89.3736 89.3736C87.8232 90.924 85.7204 91.795 83.5277 91.795H17.3888C15.1961 91.795 13.0933 90.924 11.5428 89.3736C9.99241 87.8232 9.12139 85.7203 9.12139 83.5277V50.4582C8.02506 50.4582 6.97365 50.0227 6.19843 49.2475C5.42321 48.4722 4.9877 47.4208 4.9877 46.3245V33.9234C4.9877 31.7308 5.85873 29.628 7.40916 28.0775C8.95959 26.5271 11.0624 25.6561 13.2551 25.6561H26.3589C25.8917 24.3281 25.654 22.9302 25.6561 21.5224C25.6561 18.2334 26.9627 15.0792 29.2883 12.7535C31.614 10.4279 34.7682 9.12134 38.0572 9.12134C42.1909 9.12134 45.8285 11.1882 48.102 14.2471V14.2058L50.4582 17.3887L52.8144 14.2058V14.2471C55.088 11.1882 58.7256 9.12134 62.8593 9.12134C66.1483 9.12134 69.3025 10.4279 71.6282 12.7535C73.9538 15.0792 75.2603 18.2334 75.2603 21.5224C75.2624 22.9302 75.0248 24.3281 74.5576 25.6561H87.6614C89.854 25.6561 91.9569 26.5271 93.5073 28.0775C95.0577 29.628 95.9288 31.7308 95.9288 33.9234V46.3245C95.9288 47.4208 95.4933 48.4722 94.718 49.2475C93.9428 50.0227 92.8914 50.4582 91.7951 50.4582ZM17.3888 83.5277H46.3246V50.4582H17.3888V83.5277ZM83.5277 83.5277V50.4582H54.5919V83.5277H83.5277ZM38.0572 17.3887C36.9609 17.3887 35.9094 17.8242 35.1342 18.5994C34.359 19.3747 33.9235 20.4261 33.9235 21.5224C33.9235 22.6187 34.359 23.6701 35.1342 24.4453C35.9094 25.2206 36.9609 25.6561 38.0572 25.6561C39.1535 25.6561 40.2049 25.2206 40.9801 24.4453C41.7554 23.6701 42.1909 22.6187 42.1909 21.5224C42.1909 20.4261 41.7554 19.3747 40.9801 18.5994C40.2049 17.8242 39.1535 17.3887 38.0572 17.3887ZM62.8593 17.3887C61.763 17.3887 60.7116 17.8242 59.9363 18.5994C59.1611 19.3747 58.7256 20.4261 58.7256 21.5224C58.7256 22.6187 59.1611 23.6701 59.9363 24.4453C60.7116 25.2206 61.763 25.6561 62.8593 25.6561C63.9556 25.6561 65.007 25.2206 65.7822 24.4453C66.5575 23.6701 66.993 22.6187 66.993 21.5224C66.993 20.4261 66.5575 19.3747 65.7822 18.5994C65.007 17.8242 63.9556 17.3887 62.8593 17.3887ZM13.2551 33.9234V42.1908H46.3246V33.9234H13.2551ZM54.5919 33.9234V42.1908H87.6614V33.9234H54.5919Z" fill="#FFEEEE"/>
</svg>
