<svg width="104" height="121" viewBox="0 0 104 121" fill="none" xmlns="http://www.w3.org/2000/svg">
<g filter="url(#filter0_d_141_34)">
<mask id="mask0_141_34" style="mask-type:luminance" maskUnits="userSpaceOnUse" x="0" y="10" width="89" height="106">
<path d="M44.3172 111.064C44.3172 111.064 84.6344 81.9451 84.6344 50.3992C84.6344 30.2971 66.583 14 44.3172 14C22.0514 14 4 30.2971 4 50.3992C4 81.9451 44.3172 111.064 44.3172 111.064Z" fill="white" stroke="white" stroke-width="7.9746" stroke-linejoin="round"/>
<path d="M44.3173 64.9587C46.4351 64.9587 48.5321 64.5821 50.4887 63.8504C52.4453 63.1187 54.2232 62.0463 55.7207 60.6943C57.2182 59.3423 58.4061 57.7372 59.2165 55.9708C60.027 54.2043 60.4441 52.311 60.4441 50.399C60.4441 48.487 60.027 46.5937 59.2165 44.8273C58.4061 43.0608 57.2182 41.4558 55.7207 40.1038C54.2232 38.7518 52.4453 37.6793 50.4887 36.9476C48.5321 36.216 46.4351 35.8394 44.3173 35.8394C40.0401 35.8394 35.9382 37.3733 32.9138 40.1038C29.8894 42.8343 28.1904 46.5376 28.1904 50.399C28.1904 54.2605 29.8894 57.9638 32.9138 60.6943C35.9382 63.4247 40.0401 64.9587 44.3173 64.9587Z" fill="black" stroke="black" stroke-width="7.9746" stroke-linejoin="round"/>
</mask>
<g mask="url(#mask0_141_34)">
<path d="M-20.1903 4.29395H108.825V120.771H-20.1903V4.29395Z" fill="#FFFEFB"/>
</g>
</g>
<defs>
<filter id="filter0_d_141_34" x="0.0126953" y="0.841907" width="103.761" height="119.393" filterUnits="userSpaceOnUse" color-interpolation-filters="sRGB">
<feFlood flood-opacity="0" result="BackgroundImageFix"/>
<feColorMatrix in="SourceAlpha" type="matrix" values="0 0 0 0 0 0 0 0 0 0 0 0 0 0 0 0 0 0 127 0" result="hardAlpha"/>
<feOffset dx="7.9746" dy="-1.99365"/>
<feGaussianBlur stdDeviation="3.58857"/>
<feComposite in2="hardAlpha" operator="out"/>
<feColorMatrix type="matrix" values="0 0 0 0 0 0 0 0 0 0 0 0 0 0 0 0 0 0 0.25 0"/>
<feBlend mode="normal" in2="BackgroundImageFix" result="effect1_dropShadow_141_34"/>
<feBlend mode="normal" in="SourceGraphic" in2="effect1_dropShadow_141_34" result="shape"/>
</filter>
</defs>
</svg>
