<svg width="122" height="122" viewBox="0 0 122 122" fill="none" xmlns="http://www.w3.org/2000/svg">
<path d="M111.339 61.0456V101.435C111.339 104.113 110.275 106.681 108.381 108.575C106.488 110.468 103.919 111.532 101.241 111.532H20.4629C17.7849 111.532 15.2166 110.468 13.323 108.575C11.4294 106.681 10.3656 104.113 10.3656 101.435V61.0456C9.02657 61.0456 7.74242 60.5137 6.79562 59.5669C5.84881 58.6201 5.3169 57.3359 5.3169 55.9969V40.851C5.3169 38.173 6.38072 35.6047 8.27433 33.7111C10.1679 31.8175 12.7362 30.7537 15.4142 30.7537H31.4184C30.8478 29.1317 30.5576 27.4244 30.5602 25.705C30.5602 21.6881 32.1559 17.8356 34.9963 14.9952C37.8367 12.1548 41.6892 10.5591 45.7061 10.5591C50.7548 10.5591 55.1976 13.0834 57.9743 16.8194V16.7689L60.8521 20.6564L63.7298 16.7689V16.8194C66.5065 13.0834 70.9494 10.5591 75.998 10.5591C80.015 10.5591 83.8674 12.1548 86.7078 14.9952C89.5482 17.8356 91.144 21.6881 91.144 25.705C91.1465 27.4244 90.8563 29.1317 90.2857 30.7537H106.29C108.968 30.7537 111.536 31.8175 113.43 33.7111C115.323 35.6047 116.387 38.173 116.387 40.851V55.9969C116.387 57.3359 115.855 58.6201 114.909 59.5669C113.962 60.5137 112.678 61.0456 111.339 61.0456ZM20.4629 101.435H55.8034V61.0456H20.4629V101.435ZM101.241 101.435V61.0456H65.9007V101.435H101.241ZM45.7061 20.6564C44.3671 20.6564 43.083 21.1883 42.1362 22.1351C41.1894 23.0819 40.6575 24.366 40.6575 25.705C40.6575 27.044 41.1894 28.3282 42.1362 29.275C43.083 30.2218 44.3671 30.7537 45.7061 30.7537C47.0451 30.7537 48.3292 30.2218 49.276 29.275C50.2228 28.3282 50.7548 27.044 50.7548 25.705C50.7548 24.366 50.2228 23.0819 49.276 22.1351C48.3292 21.1883 47.0451 20.6564 45.7061 20.6564ZM75.998 20.6564C74.659 20.6564 73.3749 21.1883 72.4281 22.1351C71.4813 23.0819 70.9494 24.366 70.9494 25.705C70.9494 27.044 71.4813 28.3282 72.4281 29.275C73.3749 30.2218 74.659 30.7537 75.998 30.7537C77.337 30.7537 78.6211 30.2218 79.5679 29.275C80.5148 28.3282 81.0467 27.044 81.0467 25.705C81.0467 24.366 80.5148 23.0819 79.5679 22.1351C78.6211 21.1883 77.337 20.6564 75.998 20.6564ZM15.4142 40.851V50.9483H55.8034V40.851H15.4142ZM65.9007 40.851V50.9483H106.29V40.851H65.9007Z" fill="#FFFEFB"/>
</svg>
