<svg width="85" height="98" viewBox="0 0 85 98" fill="none" xmlns="http://www.w3.org/2000/svg">
<path d="M77.7788 12.1769L76.7277 10.9672C70.7717 3.30585 62.0128 0.886481 62.0128 0.886481C51.5022 -2.74258 35.0355 5.322 20.3276 21.8463C8.0652 35.1609 0.700745 51.2901 0.700745 63.387C0.700745 65.012 1.05811 66.6168 1.05811 68.2257C1.75531 76.2903 6.31342 84.7621 10.1568 88.7944C15.0723 94.4316 21.3682 97.2703 28.3752 97.2703C39.937 97.2703 53.6113 89.5969 66.2135 75.8951C85.8404 53.7095 90.7419 27.4996 77.7788 12.1769ZM21.722 71.4516C21.722 66.2015 26.62 55.3224 37.1306 43.2255C47.3014 31.5319 57.812 28.306 62.71 27.0964C60.261 34.7658 55.0057 44.0239 47.3014 52.9111C39.937 60.9757 31.5355 67.4152 24.171 70.6451C23.4738 71.0564 22.4192 71.0564 21.722 71.4516ZM25.2256 27.4996C36.7873 14.193 49.0497 7.73331 56.7575 7.73331C59.21 7.73331 61.3121 8.5559 62.7135 10.1607C64.1219 11.7656 64.8156 14.9995 64.4653 18.6366C60.261 19.0278 45.8895 21.8463 32.2327 37.5843C23.4738 47.6651 14.3576 62.1692 15.0723 72.2499C12.9632 72.2499 10.854 71.4475 9.81697 70.2338C8.95094 69.2385 8.34415 67.9843 8.0652 66.6128C8.0652 66.6128 7.70784 64.5967 7.70784 63.387C8.0652 53.3062 14.7149 39.1932 25.2256 27.4996ZM61.3121 69.8386C44.4951 89.2017 25.2256 94.4275 15.0723 83.1533C14.2823 82.2973 13.5752 81.3456 12.9632 80.3145C13.6639 80.7258 14.7149 80.7258 15.766 80.7258C18.9192 80.7258 22.7731 79.9194 26.62 78.2984C35.039 74.6774 44.1377 67.8265 52.1994 58.5482C64.4618 44.4352 71.4689 28.3061 71.4689 16.6205L71.8262 17.0116L72.8773 17.8181C82.6767 29.5198 77.7787 51.2861 61.3156 69.8427L61.3121 69.8386Z" fill="#FFEEEE"/>
</svg>
